<?xml version="1.0" encoding="utf-8"?>
<!-- Generator: Adobe Illustrator 24.1.2, SVG Export Plug-In . SVG Version: 6.00 Build 0)  -->
<svg version="1.1" id="Layer_1" xmlns="http://www.w3.org/2000/svg" xmlns:xlink="http://www.w3.org/1999/xlink" x="0px" y="0px"
	 viewBox="0 0 353.6 327.4" style="enable-background:new 0 0 353.6 327.4;" xml:space="preserve">
<style type="text/css">
	.st0{fill:url(#SVGID_1_);}
	.st1{fill:url(#SVGID_2_);}
	.st2{fill:url(#SVGID_3_);}
</style>
<g>
	<linearGradient id="SVGID_1_" gradientUnits="userSpaceOnUse" x1="311.7836" y1="61.3753" x2="384.6634" y2="99.0614">
		<stop  offset="0" style="stop-color:#FFFFFF"/>
		<stop  offset="7.380247e-03" style="stop-color:#F6F6F6"/>
		<stop  offset="4.767627e-02" style="stop-color:#C8C8C8"/>
		<stop  offset="9.308982e-02" style="stop-color:#9D9D9D"/>
		<stop  offset="0.1419" style="stop-color:#777777"/>
		<stop  offset="0.195" style="stop-color:#575757"/>
		<stop  offset="0.2537" style="stop-color:#3B3B3B"/>
		<stop  offset="0.32" style="stop-color:#252525"/>
		<stop  offset="0.3974" style="stop-color:#141414"/>
		<stop  offset="0.4931" style="stop-color:#090909"/>
		<stop  offset="0.6274" style="stop-color:#020202"/>
		<stop  offset="1" style="stop-color:#000000"/>
	</linearGradient>
	<path class="st0" d="M318.6,78.4c0,8.5,13,15,31.3,15c1.3,0,2.5,0,3.7-0.1V63.3c-1.1,0-2.2-0.1-3.3-0.1
		C328.2,63.3,318.6,71,318.6,78.4z"/>
	<linearGradient id="SVGID_2_" gradientUnits="userSpaceOnUse" x1="103.1716" y1="53.9953" x2="194.3603" y2="101.149">
		<stop  offset="0" style="stop-color:#FFFFFF"/>
		<stop  offset="7.380247e-03" style="stop-color:#F6F6F6"/>
		<stop  offset="4.767627e-02" style="stop-color:#C8C8C8"/>
		<stop  offset="9.308982e-02" style="stop-color:#9D9D9D"/>
		<stop  offset="0.1419" style="stop-color:#777777"/>
		<stop  offset="0.195" style="stop-color:#575757"/>
		<stop  offset="0.2537" style="stop-color:#3B3B3B"/>
		<stop  offset="0.32" style="stop-color:#252525"/>
		<stop  offset="0.3974" style="stop-color:#141414"/>
		<stop  offset="0.4931" style="stop-color:#090909"/>
		<stop  offset="0.6274" style="stop-color:#020202"/>
		<stop  offset="1" style="stop-color:#000000"/>
	</linearGradient>
	<path class="st1" d="M139.5,63c-18.9,0-27.2,6.6-28.7,11.5h54.7C165.7,70,160.6,63,139.5,63z"/>
	<linearGradient id="SVGID_3_" gradientUnits="userSpaceOnUse" x1="-165.9814" y1="-13.5543" x2="704.2567" y2="436.4457">
		<stop  offset="0" style="stop-color:#FFFFFF"/>
		<stop  offset="7.380247e-03" style="stop-color:#F6F6F6"/>
		<stop  offset="4.767627e-02" style="stop-color:#C8C8C8"/>
		<stop  offset="9.308982e-02" style="stop-color:#9D9D9D"/>
		<stop  offset="0.1419" style="stop-color:#777777"/>
		<stop  offset="0.195" style="stop-color:#575757"/>
		<stop  offset="0.2537" style="stop-color:#3B3B3B"/>
		<stop  offset="0.32" style="stop-color:#252525"/>
		<stop  offset="0.3974" style="stop-color:#141414"/>
		<stop  offset="0.4931" style="stop-color:#090909"/>
		<stop  offset="0.6274" style="stop-color:#020202"/>
		<stop  offset="1" style="stop-color:#000000"/>
	</linearGradient>
	<path class="st2" d="M273.5,128.6c33.3,0,62.7,16.8,80.1,42.4V98.6c-1.5,0-3.1,0.1-4.6,0.1c-27.9,0-49.3-7.7-49.3-20
		c0-13,22.5-20.7,51-20.7c1,0,1.9,0,2.9,0V0H0v66.2h50V43.5h18.7v54.2H50V72.4H0v255h353.6v-47.8c-17.4,25.6-46.8,42.4-80.1,42.4
		c-53.4,0-96.7-43.3-96.7-96.7S220.1,128.6,273.5,128.6z M256.9,40.6h18.7v57.1h-18.7V40.6z M206.7,40.6h18.7v57.1h-18.7V40.6z
		 M182.9,79.6h-72.3c0.4,9.6,16.6,13.5,35.3,13.5c13.4,0,21.5-0.9,28.5-2l3.2,5.1c-6.6,1.1-17.9,2.4-34.2,2.4
		c-31.7,0-50.6-7.9-50.6-19.6c0-11.7,18.3-21,48.3-21c33.6,0,42.5,11.2,42.5,18.3C183.5,77.7,183.1,78.9,182.9,79.6z"/>
</g>
</svg>
